<svg xmlns="http://www.w3.org/2000/svg" xmlns:xlink="http://www.w3.org/1999/xlink" version="1.1"
    x="0px" y="0px" viewBox="0 0 100 125" style="enable-background:new 0 0 100 100;"
    xml:space="preserve"><g><path d="M6.4,45.7C7.7,57.3,14.7,70.6,24,77.8c6.8,5.4,15,5.4,23.4,4.9c8.6-0.5,16.8-3.2,24.4-7.2c7-3.7,13.9-8.3,18.2-15.1   c4.3-6.9,4.9-15.6,5.1-23.5c0.1-3.8,2-17.7-3.8-18.9c-2.7-0.6-5.3,3.1-7,4.7c-3.6,3.4-7.6,9.4-12.6,10c-5.7,0.6-11.8-0.1-17.5-0.1   c-5.8,0-11.7-0.1-17.5-0.1c-2.3,0-6.7,0.7-8.8-0.2c-2-0.8-3.6-3.9-5.1-5.5c-3.2-3.5-6.9-6.2-11.1-8.4c-1.2-0.6-2.8-0.3-3.4,0.9   C3.4,28,5.3,36.5,6.4,45.7c0.4,3.2,5.4,3.2,5,0c-1-8.2-3.2-16,1-23.9c-1.1,0.3-2.3,0.6-3.4,0.9c3.8,2,7.2,4.5,10.1,7.7   c1.9,2.1,3.4,5.1,6.1,6.3c3.1,1.4,7.1,0.8,10.4,0.8c4.5,0,9.1,0.1,13.6,0.1c4.5,0,9.1,0.1,13.6,0.1c3.8,0,8.1,0.6,11.8-0.1   c2.9-0.6,4.6-2.9,6.6-4.9c3.1-3.2,6.7-7.8,10.6-10c-0.8,0-1.7,0-2.5,0c1.3,0.6,0.8,7.3,0.8,8.5c0,3.3,0,6.5-0.2,9.8   c-0.3,5.8-1.1,12-4.2,17.1c-6.2,9.8-19.5,16.1-30.3,18.7c-6,1.4-12.7,1.7-18.8,1.1c-6.4-0.6-11.1-4.5-14.9-9.4   c-4.8-6.2-9.3-14.6-10.2-22.6C11,42.5,6,42.5,6.4,45.7z"/></g><g><path d="M41.1,53.9c4.8,0,4.8-7.5,0-7.5C36.2,46.4,36.2,53.9,41.1,53.9L41.1,53.9z"/></g><g><path d="M56.6,53.7c4.8,0,4.8-7.5,0-7.5C51.7,46.2,51.7,53.7,56.6,53.7L56.6,53.7z"/></g></svg>