<svg id="visual" viewBox="0 0 1920 1080" width="1920" height="1080" xmlns="http://www.w3.org/2000/svg" xmlns:xlink="http://www.w3.org/1999/xlink" version="1.1"><rect x="0" y="0" width="1920" height="1080" fill="#421983"></rect><path d="M0 206L35.5 226.3C71 246.7 142 287.3 213.2 294.7C284.3 302 355.7 276 426.8 253.7C498 231.3 569 212.7 640 207.8C711 203 782 212 853.2 240.2C924.3 268.3 995.7 315.7 1066.8 317C1138 318.3 1209 273.7 1280 242.5C1351 211.3 1422 193.7 1493.2 191.2C1564.3 188.7 1635.7 201.3 1706.8 219.8C1778 238.3 1849 262.7 1884.5 274.8L1920 287L1920 0L1884.5 0C1849 0 1778 0 1706.8 0C1635.7 0 1564.3 0 1493.2 0C1422 0 1351 0 1280 0C1209 0 1138 0 1066.8 0C995.7 0 924.3 0 853.2 0C782 0 711 0 640 0C569 0 498 0 426.8 0C355.7 0 284.3 0 213.2 0C142 0 71 0 35.5 0L0 0Z" fill="#2e005e" stroke-linecap="round" stroke-linejoin="miter"></path></svg>